<?xml version="1.0" encoding="UTF-8" standalone="no"?>
<!DOCTYPE svg PUBLIC "-//W3C//DTD SVG 1.1//EN" "http://www.w3.org/Graphics/SVG/1.1/DTD/svg11.dtd">
<svg version="1.1" xmlns="http://www.w3.org/2000/svg" xmlns:xlink="http://www.w3.org/1999/xlink" preserveAspectRatio="xMidYMid meet" viewBox="0 0 26.667 26.667" width="26.67" height="26.67"><defs><path d="M16.47 20.36L24.16 12.67L16.47 4.98L13.59 7.85L18.41 12.67L13.59 17.49L16.47 20.36Z" id="a5J0Bmt6YS"></path><path d="M18.41 12.67L13.59 17.49L16.47 20.36L24.16 12.67" id="g3Ya7M1hfn"></path><path d="M13.59 7.85L10.72 4.98L3.03 12.67L10.72 20.36L13.59 17.49L8.78 12.67L13.59 7.85Z" id="hrAoKfrZS"></path><path d="M3.03 12.67L10.72 20.36L13.6 17.49L8.78 12.67" id="a3CDeBFUdP"></path><path d="M5.9 15.54L13.59 23.23L21.28 15.54L18.41 12.67L13.59 17.49L8.78 12.67L5.9 15.54Z" id="b1g8K0Mtil"></path><path d="M13.59 17.49L8.78 12.67L5.9 15.54L13.59 23.23" id="a2uzElBXSn"></path><path d="M18.41 12.67L21.28 9.8L13.59 2.11L5.9 9.8L8.78 12.67L13.59 7.85L18.41 12.67Z" id="b183FzdWRy"></path><path d="M13.56 2.09L5.92 9.82L8.81 12.68L13.6 7.83" id="gg3Jtf4fg"></path></defs><g><g><g><use xlink:href="#a5J0Bmt6YS" opacity="1" fill="#ffd49b" fill-opacity="1"></use><g><use xlink:href="#a5J0Bmt6YS" opacity="1" fill-opacity="0" stroke="#000000" stroke-width="1" stroke-opacity="0"></use></g></g><g><use xlink:href="#g3Ya7M1hfn" opacity="1" fill="#f2d53c" fill-opacity="1"></use><g><use xlink:href="#g3Ya7M1hfn" opacity="1" fill-opacity="0" stroke="#000000" stroke-width="1" stroke-opacity="0"></use></g></g><g><use xlink:href="#hrAoKfrZS" opacity="1" fill="#ffd49b" fill-opacity="1"></use><g><use xlink:href="#hrAoKfrZS" opacity="1" fill-opacity="0" stroke="#000000" stroke-width="1" stroke-opacity="0"></use></g></g><g><use xlink:href="#a3CDeBFUdP" opacity="1" fill="#f2d53c" fill-opacity="1"></use><g><use xlink:href="#a3CDeBFUdP" opacity="1" fill-opacity="0" stroke="#000000" stroke-width="1" stroke-opacity="0"></use></g></g><g><use xlink:href="#b1g8K0Mtil" opacity="1" fill="#f2d53c" fill-opacity="1"></use><g><use xlink:href="#b1g8K0Mtil" opacity="1" fill-opacity="0" stroke="#000000" stroke-width="1" stroke-opacity="0"></use></g></g><g><use xlink:href="#a2uzElBXSn" opacity="1" fill="#f2d53c" fill-opacity="1"></use><g><use xlink:href="#a2uzElBXSn" opacity="1" fill-opacity="0" stroke="#000000" stroke-width="1" stroke-opacity="0"></use></g></g><g><use xlink:href="#b183FzdWRy" opacity="1" fill="#ffd49b" fill-opacity="1"></use><g><use xlink:href="#b183FzdWRy" opacity="1" fill-opacity="0" stroke="#000000" stroke-width="1" stroke-opacity="0"></use></g></g><g><use xlink:href="#gg3Jtf4fg" opacity="1" fill="#ffd49b" fill-opacity="1"></use><g><use xlink:href="#gg3Jtf4fg" opacity="1" fill-opacity="0" stroke="#000000" stroke-width="1" stroke-opacity="0"></use></g></g></g></g></svg>